<svg xmlns="http://www.w3.org/2000/svg" width="100" height="100" viewBox="0 0 100 100"><g transform="translate(0.333)"><circle cx="50" cy="50" r="50" transform="translate(-0.333)" fill="#f0db4f"/><g transform="translate(23 30)"><path d="M48.4,44.6h8.7V69.1c0,11-5.3,14.9-13.7,14.9a21.519,21.519,0,0,1-6.4-.9L38,76a14.659,14.659,0,0,0,4.5.7c3.7,0,6-1.7,6-7.6l-.1-24.5Z" transform="translate(-37 -44)" fill="#323330"/><path d="M64.8,74.4a22.314,22.314,0,0,0,9.7,2.4c4,0,6.1-1.7,6.1-4.3,0-2.4-1.8-3.8-6.5-5.4-6.4-2.3-10.7-5.9-10.7-11.6C63.4,49,69,44,78.1,44A22.625,22.625,0,0,1,88,46l-2,7a18.82,18.82,0,0,0-8-1.8c-3.8,0-5.6,1.8-5.6,3.7,0,2.5,2.1,3.6,7.2,5.5,6.8,2.5,10,6.1,10,11.6,0,6.5-4.9,12-15.6,12a25.65,25.65,0,0,1-11-2.4Z" transform="translate(-37 -44)" fill="#323330"/></g></g></svg>