<svg xmlns="http://www.w3.org/2000/svg" width="100" height="100" viewBox="0 0 100 100"><g transform="translate(-0.333)"><circle cx="50" cy="50" r="50" transform="translate(0.333)" fill="#292929"/><g transform="translate(19.3 22.625)"><circle cx="5.5" cy="5.5" r="5.5" transform="translate(25.2 21.775)" fill="#00dbfc"/><path d="M91.6,58.5a24.759,24.759,0,0,0-7.8-4.1c-.6-.2-1.3-.4-2-.6.1-.5.2-.9.3-1.4,1.5-7.4.4-13.2-2.8-15.1-1.6-.9-3.8-.9-6.3,0A25.917,25.917,0,0,0,65.6,42a19.2,19.2,0,0,0-1.5,1.4c-.3-.3-.7-.6-1-.9-5.6-5-11.2-7-14.5-5.1-1.6.9-2.7,2.8-3.2,5.5a24.49,24.49,0,0,0,.4,8.8,14.619,14.619,0,0,0,.5,2c-.8.2-1.6.5-2.3.7-6.7,2.3-10.7,5.9-10.7,9.5,0,1.9,1.1,3.9,3.2,5.6a25.179,25.179,0,0,0,8,4.3,8.447,8.447,0,0,0,1.7.5c-.2.7-.3,1.5-.5,2.2-1.3,6.9-.2,12.2,2.9,14a5.426,5.426,0,0,0,2.9.7,9.955,9.955,0,0,0,3.6-.7,24.278,24.278,0,0,0,7.7-4.8c.4-.4.9-.8,1.3-1.2.6.5,1.1,1,1.7,1.5,3.9,3.4,7.7,5.2,10.7,5.2a5.426,5.426,0,0,0,2.9-.7,8.039,8.039,0,0,0,3.3-5.6,23.667,23.667,0,0,0-.3-9.1,9.362,9.362,0,0,0-.4-1.6,3.582,3.582,0,0,0,1.1-.4c7.2-2.4,11.6-6.2,11.6-10C94.7,62.1,93.6,60.2,91.6,58.5ZM73.9,39.8c1.8-.6,3.2-.7,4.1-.2,1.8,1,3,5.3,1.6,12.3l-.3,1.2a66.965,66.965,0,0,0-8.2-1.3,59.178,59.178,0,0,0-5.2-6.5A16.6,16.6,0,0,1,67.3,44,23.947,23.947,0,0,1,73.9,39.8ZM72.6,69c-1,1.7-1.9,3.3-2.9,4.7-1.8.1-3.7.2-5.6.2s-3.8-.1-5.6-.2a56,56,0,0,1-3-4.8,47.393,47.393,0,0,1-2.6-5c.8-1.7,1.7-3.3,2.6-4.9h0l3-4.8c1.8-.1,3.7-.2,5.6-.2s3.8.1,5.6.2c1,1.5,2,3.1,3,4.7,1,1.7,1.9,3.3,2.7,4.9C74.4,65.6,73.6,67.3,72.6,69Zm4-2q1.2,2.85,2.1,5.4c-1.8.4-3.7.7-5.7,1,.6-1,1.3-2.1,1.9-3.1C75.5,69.2,76.1,68.1,76.6,67ZM64.1,80.9a57.044,57.044,0,0,1-3.7-4.4c1.2,0,2.4.1,3.6.1,1.3,0,2.5,0,3.7-.1A56.692,56.692,0,0,1,64.1,80.9Zm-9-7.5a48.545,48.545,0,0,1-5.7-.9,39.336,39.336,0,0,1,2-5.4c.6,1.1,1.1,2.1,1.7,3.2C53.8,71.4,54.4,72.4,55.1,73.4ZM53.2,57.7c-.6,1.1-1.2,2.1-1.7,3.2-.8-1.8-1.4-3.6-2-5.3,1.8-.4,3.6-.7,5.6-1C54.4,55.6,53.8,56.7,53.2,57.7ZM64,47.2a56.692,56.692,0,0,1,3.6,4.4c-1.2-.1-2.4-.1-3.7-.1-1.2,0-2.4,0-3.6.1C61.6,50,62.8,48.5,64,47.2ZM74.8,57.7a32.068,32.068,0,0,0-1.9-3.1,46.508,46.508,0,0,1,5.6,1,43.608,43.608,0,0,1-2,5.3A20.071,20.071,0,0,0,74.8,57.7ZM48.3,51.2a21.067,21.067,0,0,1-.3-7.8,5.432,5.432,0,0,1,1.9-3.7c1.8-1,6.1,0,11.4,4.8l.9.9A59.178,59.178,0,0,0,57,51.9a64.018,64.018,0,0,0-8.2,1.3C48.6,52.4,48.5,51.8,48.3,51.2ZM45.4,71.4c-6.5-2.2-9.5-5.4-9.5-7.5,0-2,2.8-4.9,8.9-7,.7-.2,1.4-.5,2.1-.7a77.192,77.192,0,0,0,3,7.8,55.158,55.158,0,0,0-3,7.9C46.4,71.7,45.9,71.6,45.4,71.4Zm6.1,17.3a2.537,2.537,0,0,1-1.6-.4c-1.7-1-2.9-4.8-1.6-11.2.1-.7.3-1.3.4-2A50.165,50.165,0,0,0,57,76.3a59.613,59.613,0,0,0,5.3,6.5c-.4.4-.8.7-1.2,1.1C57.2,87.3,53.7,88.7,51.5,88.7ZM79.8,76.4c1.3,6.7,0,10.9-1.7,11.9s-5.6.1-10.5-4.2a19.2,19.2,0,0,1-1.5-1.4,73.913,73.913,0,0,0,5.2-6.5,62.916,62.916,0,0,0,8.3-1.3A7.718,7.718,0,0,0,79.8,76.4Zm2.5-5c-.3.1-.7.2-1,.3a66.32,66.32,0,0,0-3.1-7.8,67.7,67.7,0,0,0,3-7.7l1.8.6a23.222,23.222,0,0,1,6.9,3.6c1.4,1.2,2.2,2.4,2.2,3.5C92.1,66,89,69.2,82.3,71.4Z" transform="translate(-33.3 -36.625)" fill="#00dbfc"/></g></g></svg>