<svg xmlns="http://www.w3.org/2000/svg" width="100" height="100" viewBox="0 0 100 100"><g transform="translate(0)"><circle cx="50" cy="50" r="50" transform="translate(0)" fill="#c69"/><path d="M90.9,41.8A9.229,9.229,0,0,0,86,36c-5.1-2.7-13.3-2.8-20.8-.1-4.5,1.6-13,5.2-19.4,11.1-6.4,6-7.4,11.3-6.9,13.4,1.1,5.8,7.2,9.9,12,13.3a37.816,37.816,0,0,1,3.4,2.5c-2.7,1.4-10,5.5-12,9.8-1.5,3.4-.8,5.9-.2,7a4.707,4.707,0,0,0,2.6,2.6,11.235,11.235,0,0,0,3.2.4A13.514,13.514,0,0,0,59,89.8a14.568,14.568,0,0,0,1.6-12.3,16.629,16.629,0,0,1,5.5-.2c3.9.5,5.8,2,6.7,3.2a4.806,4.806,0,0,1,1.1,3.4,4.193,4.193,0,0,1-2,2.8c-.5.3-.9.6-.8,1.2.2.8,1,.7,1.3.7a6.167,6.167,0,0,0,4.3-5.4A8.522,8.522,0,0,0,74.2,77a12.156,12.156,0,0,0-9.3-3.4,19.375,19.375,0,0,0-6.2.8l-.1-.1a53.442,53.442,0,0,0-5-4.3c-4-3-7.7-5.9-7.5-10.2C46.4,54.4,51.7,49.1,62,44c9.1-4.5,16.5-4.7,20.4-3.3A5.262,5.262,0,0,1,85.5,43c.8,1.7.5,3.9-.9,6.3-2.3,4-8.1,9-17,10-5.4.6-7.7-1.8-7.8-1.9-.6-.7-1-1.1-1.7-.7-.8.4-.4,1.5-.2,1.9.4,1.1,2.1,3,5,4,2.3.8,8.2,1.3,15.5-1.5C86.8,57.7,92.6,48.7,90.9,41.8ZM56.4,84.4c-.1.2-.1.4-.2.6a1.421,1.421,0,0,0-.2.6,8.7,8.7,0,0,1-1.8,2.6c-2.3,2.5-5.4,3.2-6.4,2.6a1.346,1.346,0,0,1-.5-.9c-.2-1.2.5-3.6,2.6-5.7a28.085,28.085,0,0,1,6.8-4.9A10.883,10.883,0,0,1,56.4,84.4Z" transform="translate(-14 -14)" fill="#fff"/></g></svg>