<svg xmlns="http://www.w3.org/2000/svg" width="100" height="100" viewBox="0 0 100 100"><defs><style>.a{fill:#c30a08;}.b{fill:#fff;}</style></defs><g transform="translate(-14 -14.207)"><g transform="translate(14 14.207)"><g transform="translate(0 0)"><circle class="a" cx="50" cy="50" r="50"/></g></g><path class="b" d="M89.078,46.01A23.783,23.783,0,0,0,72.155,39a24.135,24.135,0,0,0-15.421,5.608l-1.6,1.3a21.082,21.082,0,0,0-2.5-.2h-.3a20.671,20.671,0,0,0-14.319,6.008,20.549,20.549,0,0,0,0,29.039,20.52,20.52,0,0,0,14.62,6.008H72.555a19.752,19.752,0,0,0,4.807-.6,18.141,18.141,0,0,0,3.1-.9,23.533,23.533,0,0,0,8.612-5.507A23.872,23.872,0,0,0,89.078,46.01ZM52.628,81.157a14.374,14.374,0,0,1-10.514-4.406,14.868,14.868,0,0,1,0-21.029,15.2,15.2,0,0,1,10.514-4.406h.1a16.374,16.374,0,0,1,2.2.2,18.941,18.941,0,0,1,2.3.5,14.131,14.131,0,0,1,3.905,1.9,10.11,10.11,0,0,1,1.6,1.3c.2.1.3.3.5.4l1,1,4.907,4.907a2.053,2.053,0,0,1-1.5,3.5,2.208,2.208,0,0,1-1.5-.6L61.14,59.428l-1-1-.5-.5a10.614,10.614,0,0,0-5.007-2.4,13.571,13.571,0,0,0-2-.2h-.3a11.238,11.238,0,0,0-7.31,3.1,10.665,10.665,0,0,0,7.61,18.225h1.9l1.7,1.7a33.336,33.336,0,0,0,2.8,2.5l-6.409.3ZM84.972,75.85a17.741,17.741,0,0,1-6.609,4.206,20.182,20.182,0,0,1-2.3.7,15.016,15.016,0,0,1-3.705.4h-.3a18.667,18.667,0,0,1-11.616-4.106c-.4-.4-.9-.8-1.3-1.2l-.8-.8-2.1-2.1-5.608-5.608a2.053,2.053,0,0,1,1.5-3.5,2.208,2.208,0,0,1,1.5.6l8.512,8.512h0a17.108,17.108,0,0,0,2.6,2.1,13.592,13.592,0,0,0,7.41,2.1,13.443,13.443,0,0,0,3.5-.4,11.78,11.78,0,0,0,2-.7,16.107,16.107,0,0,0,4.506-3,14.082,14.082,0,0,0,0-19.927,14.246,14.246,0,0,0-17.924-1.7,21.407,21.407,0,0,0-3.805-2.3,18.4,18.4,0,0,1,24.633,1.1A17.983,17.983,0,0,1,84.972,75.85Z" transform="translate(0.024 0.105)"/></g></svg>