<svg id="dribbble__x2C__social__x2C__media__x2C__icon__x2C_" xmlns="http://www.w3.org/2000/svg" width="48.415" height="48.415" viewBox="0 0 48.415 48.415">
  <g id="Group_1" data-name="Group 1" transform="translate(0 0)">
    <path id="Path_2" data-name="Path 2" d="M134.845,140.206a83.449,83.449,0,0,0-5.124-7.952,13.825,13.825,0,0,0-7.616,9.636A50.947,50.947,0,0,0,134.845,140.206Z" transform="translate(-111.403 -120.528)" fill="#ea4c89" fill-rule="evenodd"/>
    <path id="Path_3" data-name="Path 3" d="M169.153,361.706l0-.006c-.105-.082-.211-.154-.312-.235C169.024,361.609,169.153,361.706,169.153,361.706Z" transform="translate(-153.427 -326.62)" fill="#ea4c89" fill-rule="evenodd"/>
    <path id="Path_4" data-name="Path 4" d="M133.93,234.686c.18-.06.361-.114.544-.165-.346-.784-.724-1.57-1.12-2.345a50.591,50.591,0,0,1-14.165,1.965c-.006.144-.012.29-.012.436a13.751,13.751,0,0,0,3.536,9.223l-.007-.009A21.827,21.827,0,0,1,133.93,234.686Z" transform="translate(-108.77 -210.371)" fill="#ea4c89" fill-rule="evenodd"/>
    <path id="Path_5" data-name="Path 5" d="M236.109,122.63A13.757,13.757,0,0,0,227,119.187a13.916,13.916,0,0,0-3.251.388,70.512,70.512,0,0,1,5.158,8.052C234.111,125.676,236.077,122.684,236.109,122.63Z" transform="translate(-202.791 -108.779)" fill="#ea4c89" fill-rule="evenodd"/>
    <path id="Path_6" data-name="Path 6" d="M222.82,123.156c-.015.006-.031.008-.045.015l.042-.01Z" transform="translate(-201.919 -112.348)" fill="#ea4c89" fill-rule="evenodd"/>
    <path id="Path_7" data-name="Path 7" d="M58.209,16h-36A6.228,6.228,0,0,0,16,22.205v36a6.228,6.228,0,0,0,6.205,6.205h36a6.228,6.228,0,0,0,6.205-6.205v-36A6.228,6.228,0,0,0,58.209,16ZM56.034,43.462a15.974,15.974,0,0,1-.942,3.032A16.159,16.159,0,0,1,51.63,51.63a16.14,16.14,0,0,1-5.136,3.462,16.1,16.1,0,0,1-6.288,1.271,16.286,16.286,0,0,1-3.253-.328,16.1,16.1,0,0,1-5.78-2.432,16.213,16.213,0,0,1-4.363-4.362,15.891,15.891,0,0,1-1.489-2.748,16.094,16.094,0,0,1-.945-3.032,16.3,16.3,0,0,1-.326-3.255c0-.251.005-.5.018-.752a15.956,15.956,0,0,1,1.253-5.537,15.924,15.924,0,0,1,1.489-2.744,16.509,16.509,0,0,1,1.97-2.39,16.286,16.286,0,0,1,2.393-1.973,16.141,16.141,0,0,1,18.067,0A16.236,16.236,0,0,1,53.6,31.172a16.167,16.167,0,0,1,1.491,2.745,15.977,15.977,0,0,1,.942,3.039,16.147,16.147,0,0,1,.313,2.647c.007.2.017.4.017.6A16.315,16.315,0,0,1,56.034,43.462Z" transform="translate(-16 -16)" fill="#ea4c89" fill-rule="evenodd"/>
    <path id="Path_8" data-name="Path 8" d="M293.1,169.114c-.027.035-2.238,3.238-7.687,5.46.089.183.174.369.262.555.225.477.447.959.655,1.445.1.24.2.477.3.713a31.86,31.86,0,0,1,9.611.454q-.008-.556-.056-1.1A13.738,13.738,0,0,0,293.1,169.114Z" transform="translate(-258.241 -153.67)" fill="#ea4c89" fill-rule="evenodd"/>
    <path id="Path_9" data-name="Path 9" d="M182.76,278.137c-8.146,2.836-10.8,8.558-10.827,8.613a13.774,13.774,0,0,0,13.864,1.832,57.342,57.342,0,0,0-2.947-10.475A.573.573,0,0,0,182.76,278.137Z" transform="translate(-156.205 -251.67)" fill="#ea4c89" fill-rule="evenodd"/>
    <path id="Path_10" data-name="Path 10" d="M305.779,269.761a59.927,59.927,0,0,1,2.688,9.856,13.806,13.806,0,0,0,5.912-9.253A20.046,20.046,0,0,0,305.779,269.761Z" transform="translate(-276.551 -243.967)" fill="#ea4c89" fill-rule="evenodd"/>
  </g>
</svg>
