<svg xmlns="http://www.w3.org/2000/svg" width="100" height="100" viewBox="0 0 100 100"><defs><style>.a{fill:#525967;}.b{fill:#0acf83;}.c{fill:#a259ff;}.d{fill:#f24e1e;}.e{fill:#ff7262;}.f{fill:#1abcfe;}</style></defs><g transform="translate(-41.76 -56.76)"><g transform="translate(41.76 56.76)"><circle class="a" cx="50" cy="50" r="50"/><g transform="translate(30.379 20.634)"><path class="b" d="M19.269,33.809A9.809,9.809,0,0,0,29.078,24V14H19.269a9.809,9.809,0,1,0,0,19.618Z" transform="translate(-9.202 24.921)"/><path class="c" d="M9.42,20.557A9.809,9.809,0,0,1,19.484,11h9.554V30.111H19.484A9.809,9.809,0,0,1,9.42,20.557Z" transform="translate(-9.417 8.809)"/><path class="d" d="M9.423,17.638A9.809,9.809,0,0,1,19.487,7.893h9.554V27.7H19.487A9.809,9.809,0,0,1,9.423,17.638Z" transform="translate(-9.419 -7.889)"/><path class="e" d="M12.5,7.89h9.554a9.9,9.9,0,1,1,0,19.809H12.5Z" transform="translate(7.121 -7.887)"/><path class="f" d="M32.115,20.557A9.809,9.809,0,1,1,22.051,11,9.809,9.809,0,0,1,32.115,20.557Z" transform="translate(7.124 8.809)"/></g></g></g></svg>