<svg xmlns="http://www.w3.org/2000/svg" width="11.793" height="14.214" viewBox="0 0 11.793 14.214">
  <g id="iconfinder_29_939731" transform="translate(-13.376 -10.676)">
    <path id="Cat_2_" d="M20.987,24.214H17.2v-1.9c-2.606.569-3.317-1.421-3.317-1.421a5.864,5.864,0,0,0-.948-1.421c-.948-.569,0-.474,0-.474a1.753,1.753,0,0,1,1.421.948A2.246,2.246,0,0,0,17.2,20.9a2.227,2.227,0,0,1,.474-1.421c-2.085-.237-3.791-1.421-3.791-3.791s.474-2.843.948-3.317a3.064,3.064,0,0,1,0-2.369s.948,0,1.9,1.421c.474-.474,1.9-.474,2.369-.474s1.9,0,2.369.474C22.409,10,23.356,10,23.356,10a2.849,2.849,0,0,1,0,2.369c.474.474.948.948.948,3.317s-1.706,3.554-3.791,3.791a2.436,2.436,0,0,1,.474,1.421v3.317Z" transform="translate(0.865 0.676)" fill="#363636"/>
  </g>
</svg>
