<svg id="iconfinder_29_939731" xmlns="http://www.w3.org/2000/svg" width="48.415" height="48.415" viewBox="0 0 48.415 48.415">
  <path id="Path_1" data-name="Path 1" d="M45.38,1H5.035A4.046,4.046,0,0,0,1,5.035V45.38a4.046,4.046,0,0,0,4.035,4.035H45.38a4.046,4.046,0,0,0,4.035-4.035V5.035A4.046,4.046,0,0,0,45.38,1Z" transform="translate(-1 -1)" fill="#282828"/>
  <path id="Cat_2_" d="M30.555,40.259H22.485V36.225c-5.548,1.21-7.06-3.026-7.06-3.026a12.483,12.483,0,0,0-2.017-3.026c-2.017-1.21,0-1.009,0-1.009a3.731,3.731,0,0,1,3.026,2.017A4.781,4.781,0,0,0,22.485,33.2a4.74,4.74,0,0,1,1.009-3.026c-4.438-.5-8.069-3.026-8.069-8.069s1.009-6.052,2.017-7.06a6.522,6.522,0,0,1,0-5.043s2.017,0,4.035,3.026c1.009-1.009,4.035-1.009,5.043-1.009s4.035,0,5.043,1.009C33.581,10,35.6,10,35.6,10a6.065,6.065,0,0,1,0,5.043c1.009,1.009,2.017,2.017,2.017,7.06s-3.631,7.565-8.069,8.069A5.186,5.186,0,0,1,30.555,33.2v7.061Z" transform="translate(-0.901 -0.922)" fill="#e8ebee"/>
</svg>
