<svg xmlns="http://www.w3.org/2000/svg" width="48.002" height="48.002" viewBox="0 0 48.002 48.002">
  <g id="isntagram__x2C__social__x2C__media_x2C__icon_x2C_" transform="translate(5 7)">
    <g id="Group_2" data-name="Group 2" transform="translate(-5 -7)">
      <path id="Path_11" data-name="Path 11" d="M57.85,16h-35.7A6.175,6.175,0,0,0,16,22.152v35.7A6.175,6.175,0,0,0,22.152,64h35.7A6.175,6.175,0,0,0,64,57.85v-35.7A6.175,6.175,0,0,0,57.85,16ZM56,36.713V49.829A6.17,6.17,0,0,1,49.827,56H30.171A6.165,6.165,0,0,1,24,49.829V30.171A6.162,6.162,0,0,1,30.171,24H49.827A6.167,6.167,0,0,1,56,30.171Z" transform="translate(-16 -16)" fill="#fd1d1d" fill-rule="evenodd"/>
      <path id="Path_12" data-name="Path 12" d="M205.229,210.892a5.619,5.619,0,0,0,4.911-8.388,5.771,5.771,0,0,0-.34-.536,5.621,5.621,0,0,0-9.143,0,5.846,5.846,0,0,0-.339.536,5.579,5.579,0,0,0-.729,2.75A5.646,5.646,0,0,0,205.229,210.892Z" transform="translate(-181.229 -181.255)" fill="#fd1d1d" fill-rule="evenodd"/>
      <path id="Path_13" data-name="Path 13" d="M330.184,138.124v-5.431l-.7,0-4.722.014.018,5.43Z" transform="translate(-293.883 -121.023)" fill="#fd1d1d" fill-rule="evenodd"/>
      <path id="Path_14" data-name="Path 14" d="M148.323,223.908a8.76,8.76,0,1,1-16.849,0,9.4,9.4,0,0,1,.309-.908H127v13.128a3.076,3.076,0,0,0,3.07,3.073h19.656a3.079,3.079,0,0,0,3.075-3.073V223h-4.789A9.249,9.249,0,0,1,148.323,223.908Z" transform="translate(-115.9 -202.299)" fill="#fd1d1d" fill-rule="evenodd"/>
    </g>
  </g>
</svg>
