<svg id="linkdin__x2C__social__x2C_media_x2C__logo" xmlns="http://www.w3.org/2000/svg" width="48.224" height="48.224" viewBox="0 0 48.224 48.224">
  <path id="Path_15" data-name="Path 15" d="M58.043,16H22.181A6.2,6.2,0,0,0,16,22.181V58.043a6.2,6.2,0,0,0,6.181,6.181H58.043a6.2,6.2,0,0,0,6.181-6.181V22.181A6.2,6.2,0,0,0,58.043,16ZM32.577,39.289V54.177h-6.53V35.39h6.53ZM29.3,32.59A3.29,3.29,0,1,1,32.591,29.3,3.291,3.291,0,0,1,29.3,32.59ZM54.177,43.93V54.177H48.551V45.052c0-2.185-.237-5-3.231-5-3.04,0-3.5,2.379-3.5,4.838v9.283H36.395V35.39h5.224V37.9h.056c.779-1.407,2.688-2.514,5.531-2.514,4.789,0,6.417,2.265,6.862,5.808a21.734,21.734,0,0,1,.146,2.733Z" transform="translate(-16 -16)" fill="#0072b1" fill-rule="evenodd"/>
</svg>
