<svg xmlns="http://www.w3.org/2000/svg" width="14.68" height="14.681" viewBox="0 0 14.68 14.681">
  <g id="link" transform="translate(-8.133 -8.13)">
    <g id="Group_115" data-name="Group 115" transform="translate(13.514 8.13)">
      <path id="Path_35" data-name="Path 35" d="M28.673,18.328a3.915,3.915,0,0,1-2.786-1.154.871.871,0,0,1,1.232-1.232,2.2,2.2,0,0,0,3.109,0l2.318-2.318a2.2,2.2,0,1,0-3.109-3.109l-.992.992a.871.871,0,0,1-1.232-1.232l.993-.992a3.94,3.94,0,0,1,5.573,5.573L31.46,17.173A3.916,3.916,0,0,1,28.673,18.328Z" transform="translate(-25.631 -8.13)" fill="#00afef"/>
    </g>
    <g id="Group_116" data-name="Group 116" transform="translate(8.133 12.615)">
      <path id="Path_36" data-name="Path 36" d="M12.072,32.909a3.94,3.94,0,0,1-2.786-6.727L11.6,23.864a3.945,3.945,0,0,1,5.573,0A.871.871,0,0,1,15.944,25.1a2.2,2.2,0,0,0-3.109,0l-2.318,2.318a2.2,2.2,0,0,0,3.109,3.109l.992-.992a.871.871,0,1,1,1.232,1.232l-.992.992A3.915,3.915,0,0,1,12.072,32.909Z" transform="translate(-8.133 -22.712)" fill="#00afef"/>
    </g>
  </g>
</svg>
