<svg xmlns="http://www.w3.org/2000/svg" xmlns:xlink="http://www.w3.org/1999/xlink" width="157" height="155" viewBox="0 0 157 155"><defs><filter id="a" x="12" y="12" width="145" height="143" filterUnits="userSpaceOnUse"><feOffset dx="6" dy="6" input="SourceAlpha"/><feGaussianBlur stdDeviation="5" result="b"/><feFlood flood-opacity="0.2"/><feComposite operator="in" in2="b"/><feComposite in="SourceGraphic"/></filter><filter id="c" x="0" y="0" width="145" height="143" filterUnits="userSpaceOnUse"><feOffset dx="-6" dy="-6" input="SourceAlpha"/><feGaussianBlur stdDeviation="5" result="d"/><feFlood flood-color="#fff" flood-opacity="0.702"/><feComposite operator="in" in2="d"/><feComposite in="SourceGraphic"/></filter><filter id="e" x="34" y="82" width="89" height="49" filterUnits="userSpaceOnUse"><feOffset dy="1" input="SourceAlpha"/><feGaussianBlur stdDeviation="3" result="f"/><feFlood flood-color="#2a2a2a" flood-opacity="0.239"/><feComposite operator="in" in2="f"/><feComposite in="SourceGraphic"/></filter><filter id="g" x="78" y="30" width="64" height="101" filterUnits="userSpaceOnUse"><feOffset dy="5" input="SourceAlpha"/><feGaussianBlur stdDeviation="3" result="h"/><feFlood flood-color="#2a2a2a" flood-opacity="0.239"/><feComposite operator="in" in2="h"/><feComposite in="SourceGraphic"/></filter><filter id="i" x="49" y="30" width="64" height="101" filterUnits="userSpaceOnUse"><feOffset dx="2" dy="5" input="SourceAlpha"/><feGaussianBlur stdDeviation="3" result="j"/><feFlood flood-color="#2a2a2a" flood-opacity="0.239"/><feComposite operator="in" in2="j"/><feComposite in="SourceGraphic"/></filter><filter id="k" x="16" y="30" width="62" height="101" filterUnits="userSpaceOnUse"><feOffset dx="4" dy="5" input="SourceAlpha"/><feGaussianBlur stdDeviation="3" result="l"/><feFlood flood-color="#2a2a2a" flood-opacity="0.239"/><feComposite operator="in" in2="l"/><feComposite in="SourceGraphic"/></filter></defs><g transform="translate(20.669 18.946)"><g transform="translate(0.331 2.054)"><g transform="matrix(1, 0, 0, 1, -21, -21)" filter="url(#a)"><rect width="115" height="113" rx="12" transform="translate(21 21)" fill="#e8ebee"/></g><g transform="matrix(1, 0, 0, 1, -21, -21)" filter="url(#c)"><rect width="115" height="113" rx="12" transform="translate(21 21)" fill="#e8ebee"/></g></g><g transform="translate(1.804 16.382)"><g transform="matrix(1, 0, 0, 1, -22.47, -35.33)" filter="url(#e)"><text transform="translate(44 114)" fill="#00afef" stroke="rgba(0,0,0,0)" stroke-width="1" font-size="24" font-family="Roboto-Bold, Roboto" font-weight="700" letter-spacing="-0.078em"><tspan x="0" y="0">.design</tspan></text></g><g transform="matrix(1, 0, 0, 1, -22.47, -35.33)" filter="url(#g)"><text transform="translate(88 99)" fill="#00afef" stroke="rgba(0,0,0,0)" stroke-width="1" font-size="67" font-family="Roboto-Bold, Roboto" font-weight="700" letter-spacing="-0.098em"><tspan x="0" y="0">C</tspan></text></g><g transform="matrix(1, 0, 0, 1, -22.47, -35.33)" filter="url(#i)"><text transform="translate(57 99)" fill="#00afef" stroke="rgba(0,0,0,0)" stroke-width="1" font-size="67" font-family="Roboto-Bold, Roboto" font-weight="700" letter-spacing="-0.098em"><tspan x="0" y="0">K</tspan></text></g><g transform="matrix(1, 0, 0, 1, -22.47, -35.33)" filter="url(#k)"><text transform="translate(22 99)" fill="#00afef" stroke="rgba(0,0,0,0)" stroke-width="1" font-size="67" font-family="Roboto-Bold, Roboto" font-weight="700" letter-spacing="-0.098em"><tspan x="0" y="0">S</tspan></text></g></g></g></svg>