<svg xmlns="http://www.w3.org/2000/svg" width="100" height="100" viewBox="0 0 100 100"><defs><style>.a{fill:#001d26;}.b{fill:#31c5f0;}</style></defs><g transform="translate(-14 -14)"><g transform="translate(14 14)"><path class="a" d="M64,111.2A47.2,47.2,0,1,1,111.2,64,47.287,47.287,0,0,1,64,111.2Z" transform="translate(-14 -14)"/><path class="b" d="M64,19.7A44.3,44.3,0,1,1,19.7,64,44.385,44.385,0,0,1,64,19.7M64,14a50,50,0,1,0,50,50A50.018,50.018,0,0,0,64,14Z" transform="translate(-14 -14)"/></g><path class="b" d="M80.5,59.3c-2.8,0-3.8,1.4-3.8,2.6,0,1.3.6,2.2,4.4,4.1,5.6,2.7,7.4,5.3,7.4,9.1,0,5.7-4.4,8.8-10.3,8.8a15.317,15.317,0,0,1-7.3-1.5.6.6,0,0,1-.3-.6V76.6c0-.4.2-.5.4-.3a12.808,12.808,0,0,0,7.2,2.1c2.8,0,4-1.2,4-2.8,0-1.3-.8-2.4-4.4-4.3-5.1-2.4-7.2-4.9-7.2-9,0-4.6,3.6-8.4,9.9-8.4a17.154,17.154,0,0,1,6.4,1,.866.866,0,0,1,.4.7v4.9c0,.3-.2.5-.5.4a12.252,12.252,0,0,0-6.3-1.6ZM49.8,63.6a22.741,22.741,0,0,0,2.9.1c4.2,0,8.1-1.5,8.1-7.1,0-4.5-2.8-6.8-7.6-6.8-1.4,0-2.8.1-3.4.1V63.6Zm-6.3-19c0-.2.5-.4.8-.4,2.3-.1,5.7-.2,9.2-.2,9.9,0,13.7,5.4,13.7,12.4,0,9.1-6.6,13-14.6,13-1.4,0-1.8-.1-2.8-.1V83c0,.3-.1.4-.4.4H43.9c-.3,0-.4-.1-.4-.4V44.6Z" transform="translate(0 0)"/></g></svg>