<svg xmlns="http://www.w3.org/2000/svg" width="100" height="100" viewBox="0 0 100 100"><defs><style>.a{fill:#434343;}.b{fill:#0078d7;fill-rule:evenodd;}</style></defs><g transform="translate(961 506)"><g transform="translate(-975 -520)"><g transform="translate(14 14)"><path class="a" d="M64,111.2A47.2,47.2,0,1,1,111.2,64,47.287,47.287,0,0,1,64,111.2Z" transform="translate(-14 -14)"/><path class="a" d="M64,19.7A44.3,44.3,0,1,1,19.7,64,44.385,44.385,0,0,1,64,19.7M64,14a50,50,0,1,0,50,50A50.018,50.018,0,0,0,64,14Z" transform="translate(-14 -14)"/></g></g><g transform="translate(-942.856 -483.287)"><path class="b" d="M22.417,31.2l-4.9,3.73c-3.239,2.47-6.483,4.934-9.709,7.42a.966.966,0,0,1-1.238.1c-.664-.387-1.364-.713-2.052-1.058A.892.892,0,0,1,4,40.511c.005-8.577,0-17.154.025-25.731a1.15,1.15,0,0,1,.491-.82c.733-.448,1.525-.8,2.289-1.2a.9.9,0,0,1,1.051.215q4,3.062,8,6.116c2.187,1.669,4.375,3.337,6.588,5.024.161-.151.308-.284.451-.423Q34.871,12.033,46.835.361A1.028,1.028,0,0,1,48.107.119c3.377,1.373,6.767,2.712,10.139,4.1.249.1.428.449.566.719a1.438,1.438,0,0,1,.024.6q0,22.122,0,44.244c0,1.1,0,1.091-1.046,1.509-3.215,1.285-6.434,2.559-9.637,3.873a1.083,1.083,0,0,1-1.358-.264Q34.945,43.342,23.072,31.815C22.875,31.624,22.671,31.441,22.417,31.2Zm23.006,7V17.116L31.383,27.621ZM15.969,27.629l-7-6.253V33.983Z" transform="translate(0 0)"/></g></g></svg>