<svg xmlns="http://www.w3.org/2000/svg" width="100" height="100" viewBox="0 0 100 100"><defs><style>.a{fill:#001d26;}.b{fill:#ff26be;}.c{fill:#ffd9f2;}</style></defs><g transform="translate(-14 -14)"><g transform="translate(14 14)"><path class="a" d="M64,111.2A47.2,47.2,0,1,1,111.2,64,47.287,47.287,0,0,1,64,111.2Z" transform="translate(-14 -14)"/><path class="b" d="M64,19.7A44.3,44.3,0,1,1,19.7,64,44.385,44.385,0,0,1,64,19.7M64,14a50,50,0,1,0,50,50A50.018,50.018,0,0,0,64,14Z" transform="translate(-14 -14)"/></g><g transform="translate(36.755 44.215)"><path class="c" d="M125.638,137.4h-6.745l-7.24,15.143L104.315,137.4H97.367l9.833,19.663L97.016,177.193h6.866l7.37-15.43,7.456,15.43h7.432l-10.5-20.371Zm18.646,0v10.119h-1.944c-6.633,0-14.651,4.277-14.651,15.2,0,8.446,4.279,14.794,13.394,14.794,6.711,0,9.873-2.322,9.873-2.322V137.4Zm-.007,34.3a7.1,7.1,0,0,1-2.581.338c-1.813,0-7.374-.8-7.374-9.616s6.391-9.524,7.926-9.524a3.272,3.272,0,0,1,2.028.43V171.7Z" transform="translate(-97.016 -137.396)"/></g></g></svg>